<svg id="doctorIcon" xmlns="http://www.w3.org/2000/svg" viewBox="0 0 200 200" width="200" height="200">
                <defs>
                    <linearGradient id="bg" x1="0%" y1="0%" x2="100%" y2="100%">
                        <stop offset="0%" style="stop-color:#667eea"/>
                        <stop offset="100%" style="stop-color:#764ba2"/>
                    </linearGradient>
                    <linearGradient id="coat" x1="0%" y1="0%" x2="0%" y2="100%">
                        <stop offset="0%" style="stop-color:#ffffff"/>
                        <stop offset="100%" style="stop-color:#f0f9ff"/>
                    </linearGradient>
                    <radialGradient id="face">
                        <stop offset="30%" style="stop-color:#ffe6d5"/>
                        <stop offset="100%" style="stop-color:#ffd4a3"/>
                    </radialGradient>
                    <filter id="shadow">
                        <feDropShadow dx="0" dy="5" stdDeviation="6" flood-opacity="0.3"/>
                    </filter>
                </defs>
                <rect width="200" height="200" rx="45" fill="url(#bg)"/>
                <path d="M 20 35 L 35 35 L 38 30 L 41 40 L 44 35 L 55 35" stroke="white" stroke-width="2.5" fill="none" opacity="0.3" stroke-linecap="round"/>
                <path d="M 145 35 L 160 35 L 163 30 L 166 40 L 169 35 L 180 35" stroke="white" stroke-width="2.5" fill="none" opacity="0.3" stroke-linecap="round"/>
                <g transform="translate(100, 65)" filter="url(#shadow)">
                    <path d="M -32 28 L -35 105 L -18 107 L -10 55 Z" fill="url(#coat)" stroke="#e0e7ff"/>
                    <path d="M 32 28 L 35 105 L 18 107 L 10 55 Z" fill="url(#coat)" stroke="#e0e7ff"/>
                    <rect x="-10" y="28" width="20" height="79" fill="url(#coat)"/>
                    <path d="M -10 28 L -5 38 L 0 40 L 5 38 L 10 28" fill="#dbeafe"/>
                    <circle cx="0" cy="48" r="2" fill="#94a3b8"/>
                    <circle cx="0" cy="60" r="2" fill="#94a3b8"/>
                    <circle cx="0" cy="72" r="2" fill="#94a3b8"/>
                    <rect x="-25" y="52" width="16" height="20" rx="2" fill="#f1f5f9" stroke="#cbd5e1"/>
                    <rect x="9" y="52" width="16" height="20" rx="2" fill="#f1f5f9" stroke="#cbd5e1"/>
                    <rect x="20" y="55" width="2" height="12" fill="#3b82f6"/>
                    <path d="M -16 30 Q -20 26 -22 20" stroke="#0891b2" stroke-width="2.5" fill="none"/>
                    <path d="M 16 30 Q 20 26 22 20" stroke="#0891b2" stroke-width="2.5" fill="none"/>
                    <circle cx="-22" cy="20" r="2.5" fill="#0891b2"/>
                    <circle cx="22" cy="20" r="2.5" fill="#0891b2"/>
                    <path d="M -16 30 Q -8 35 0 38 M 16 30 Q 8 35 0 38" stroke="#0891b2" stroke-width="2.5" fill="none"/>
                    <path d="M 0 38 L 0 58" stroke="#0891b2" stroke-width="2.5" fill="none"/>
                    <circle cx="0" cy="61" r="6" fill="#0891b2"/>
                    <circle cx="0" cy="61" r="4" fill="#0e7490"/>
                    <path d="M -32 32 L -38 48 L -40 70 L -38 88" stroke="url(#coat)" stroke-width="12" fill="none" stroke-linecap="round"/>
                    <path d="M -32 32 L -38 48 L -40 70 L -38 88" stroke="#ffd4a3" stroke-width="7" fill="none" stroke-linecap="round"/>
                    <ellipse cx="-38" cy="91" rx="4.5" ry="6" fill="#ffdbac"/>
                    <path d="M 32 32 L 38 48 L 40 70 L 38 88" stroke="url(#coat)" stroke-width="12" fill="none" stroke-linecap="round"/>
                    <path d="M 32 32 L 38 48 L 40 70 L 38 88" stroke="#ffd4a3" stroke-width="7" fill="none" stroke-linecap="round"/>
                    <ellipse cx="38" cy="91" rx="4.5" ry="6" fill="#ffdbac"/>
                    <rect x="-16" y="105" width="12" height="40" fill="#1e40af" rx="2"/>
                    <rect x="4" y="105" width="12" height="40" fill="#1e40af" rx="2"/>
                    <ellipse cx="-10" cy="145" rx="6" ry="3.5" fill="#0f172a"/>
                    <ellipse cx="10" cy="145" rx="6" ry="3.5" fill="#0f172a"/>
                    <rect x="-9" y="8" width="18" height="20" fill="#ffdbac" rx="4"/>
                    <circle cx="0" cy="-7" r="26" fill="url(#face)"/>
                    <ellipse cx="-26" cy="0" rx="5" ry="9" fill="#ffc999"/>
                    <ellipse cx="26" cy="0" rx="5" ry="9" fill="#ffc999"/>
                    <ellipse cx="-9" cy="-8" rx="3.5" ry="4.5" fill="white"/>
                    <ellipse cx="-9" cy="-8" rx="2" ry="3.5" fill="#2c3e50"/>
                    <circle cx="-8.5" cy="-9" r="1" fill="white"/>
                    <ellipse cx="9" cy="-8" rx="3.5" ry="4.5" fill="white"/>
                    <ellipse cx="9" cy="-8" rx="2" ry="3.5" fill="#2c3e50"/>
                    <circle cx="9.5" cy="-9" r="1" fill="white"/>
                    <path d="M -14 -14 Q -10 -16 -5 -14" stroke="#2c3e50" stroke-width="2" fill="none" stroke-linecap="round"/>
                    <path d="M 5 -14 Q 10 -16 14 -14" stroke="#2c3e50" stroke-width="2" fill="none" stroke-linecap="round"/>
                    <path d="M 0 -3 L -1.5 4 L 1.5 4" stroke="#e6b88a" stroke-width="1.5" fill="none"/>
                    <path d="M -10 8 Q -5 12 0 12 Q 5 12 10 8" stroke="#d4937a" stroke-width="2.5" fill="none" stroke-linecap="round"/>
                    <path d="M -26 -12 Q -22 -28 -10 -32 Q 0 -34 10 -32 Q 22 -28 26 -12 L 24 -10 Q 20 -26 10 -30 Q 0 -32 -10 -30 Q -20 -26 -24 -10 Z" fill="#2c3e50"/>
                    <ellipse cx="0" cy="-33" rx="28" ry="7" fill="white"/>
                    <path d="M -28 -33 Q -24 -45 -10 -48 Q 0 -50 10 -48 Q 24 -45 28 -33" fill="white"/>
                    <ellipse cx="0" cy="-42" rx="18" ry="9" fill="#f0f9ff"/>
                    <ellipse cx="0" cy="-33" rx="26" ry="5" fill="none" stroke="#e2e8f0"/>
                    <g transform="translate(0, -42)">
                        <rect x="-2" y="-6" width="4" height="12" rx="1" fill="#ef4444"/>
                        <rect x="-7" y="-2" width="14" height="4" rx="1" fill="#ef4444"/>
                    </g>
                </g>
                <circle cx="165" cy="165" r="18" fill="#10b981" opacity="0.95"/>
                <text x="165" y="170" font-family="Arial" font-size="13" font-weight="bold" fill="white" text-anchor="middle">AI</text>
                <g transform="translate(35, 165)" opacity="0.6">
                    <circle r="15" fill="white" opacity="0.4"/>
                    <rect x="-5" y="-10" width="10" height="20" rx="1.5" fill="#ef4444"/>
                    <rect x="-10" y="-5" width="20" height="10" rx="1.5" fill="#ef4444"/>
                </g>
                <text x="100" y="193" font-family="Microsoft YaHei, Arial" font-size="12" font-weight="bold" fill="white" text-anchor="middle">智能医疗助手</text>
            </svg>